<?xml version="1.0" encoding="UTF-8"?><svg id="Layer_1" xmlns="http://www.w3.org/2000/svg" viewBox="0 0 230.01 229.76"><defs><style>.cls-1{stroke-width:4px;}.cls-1,.cls-2,.cls-3,.cls-4,.cls-5,.cls-6,.cls-7,.cls-8,.cls-9,.cls-10{stroke-miterlimit:10;}.cls-1,.cls-2,.cls-4,.cls-7{stroke:#000;}.cls-1,.cls-3,.cls-4,.cls-5,.cls-6,.cls-7,.cls-8,.cls-9,.cls-10{fill:none;}.cls-11,.cls-2{fill:#fff;}.cls-2{stroke-width:.5px;}.cls-12{opacity:.5;}.cls-3,.cls-6,.cls-10{stroke:#fff;}.cls-4{stroke-width:6px;}.cls-4,.cls-10{stroke-linecap:round;}.cls-5,.cls-8{stroke:#666;}.cls-6{stroke-dasharray:0 0 6.13 9.19;}.cls-7,.cls-10{stroke-width:3px;}.cls-8,.cls-9{stroke-width:2px;}.cls-9{stroke:#b3b3b3;}</style></defs><g id="New_Symbol"><g><g><g><line class="cls-5" x1="138.62" y1="21.12" x2="114.98" y2="54.72"/><line class="cls-5" x1="91.33" y1="21.12" x2="114.98" y2="54.72"/><line class="cls-5" x1="49.46" y1="43.09" x2="114.98" y2="54.72"/><line class="cls-5" x1="22.6" y1="82.01" x2="61.44" y2="147.45"/><line class="cls-5" x1="16.9" y1="128.96" x2="61.44" y2="147.45"/><line class="cls-5" x1="33.67" y1="173.17" x2="61.44" y2="147.45"/><line class="cls-5" x1="69.06" y1="204.53" x2="61.44" y2="147.45"/><line class="cls-5" x1="160.89" y1="204.53" x2="168.51" y2="147.45"/><line class="cls-5" x1="196.29" y1="173.17" x2="168.51" y2="147.45"/><line class="cls-5" x1="213.06" y1="128.96" x2="168.51" y2="147.45"/><line class="cls-5" x1="207.36" y1="82.01" x2="168.51" y2="147.45"/><line class="cls-5" x1="180.49" y1="43.09" x2="114.98" y2="54.72"/></g><polygon class="cls-8" points="138.62 21.12 91.33 21.12 49.46 43.09 22.6 82.01 16.9 128.96 33.67 173.17 69.06 204.53 114.98 215.85 160.89 204.53 196.29 173.17 213.06 128.96 207.36 82.01 180.49 43.09 138.62 21.12"/><polygon points="75.24 69.18 114.98 54.72 154.71 69.18 175.86 105.81 168.51 147.45 136.12 174.63 93.83 174.63 61.44 147.45 54.09 105.81 75.24 69.18"/><polygon class="cls-9" points="154.71 69.18 175.86 105.81 136.12 174.63 75.24 69.18 54.09 105.81 93.83 174.63 154.71 69.18"/><polyline class="cls-7" points="61.44 147.45 138.83 147.45 168.51 147.45"/><g><line class="cls-3" x1="61.44" y1="147.45" x2="64.44" y2="147.45"/><line class="cls-6" x1="73.63" y1="147.45" x2="160.92" y2="147.45"/><line class="cls-3" x1="165.51" y1="147.45" x2="168.51" y2="147.45"/></g><line class="cls-4" x1="114.98" y1="54.72" x2="61.44" y2="147.45"/><line class="cls-10" x1="114.98" y1="54.72" x2="61.44" y2="147.45"/><line class="cls-4" x1="114.98" y1="54.72" x2="168.51" y2="147.45"/><line class="cls-10" x1="114.98" y1="54.72" x2="168.51" y2="147.45"/><g><g><path class="cls-11" d="M91.33,27.24c-3.38,0-6.12-2.75-6.12-6.12s2.75-6.12,6.12-6.12,6.12,2.75,6.12,6.12-2.75,6.12-6.12,6.12Z"/><path d="M91.33,19.5c.89,0,1.62,.73,1.62,1.62s-.73,1.62-1.62,1.62-1.62-.73-1.62-1.62,.73-1.62,1.62-1.62m0-9c-5.87,0-10.62,4.76-10.62,10.62s4.76,10.62,10.62,10.62,10.62-4.76,10.62-10.62-4.76-10.62-10.62-10.62h0Z"/></g><g><path class="cls-11" d="M138.62,27.24c-3.38,0-6.12-2.75-6.12-6.12s2.75-6.12,6.12-6.12,6.12,2.75,6.12,6.12-2.75,6.12-6.12,6.12Z"/><path d="M138.62,19.5c.89,0,1.62,.73,1.62,1.62s-.73,1.62-1.62,1.62-1.62-.73-1.62-1.62,.73-1.62,1.62-1.62m0-9c-5.87,0-10.62,4.76-10.62,10.62s4.76,10.62,10.62,10.62,10.62-4.76,10.62-10.62-4.76-10.62-10.62-10.62h0Z"/></g><g><path class="cls-11" d="M138.62,27.24c-3.38,0-6.12-2.75-6.12-6.12s2.75-6.12,6.12-6.12,6.12,2.75,6.12,6.12-2.75,6.12-6.12,6.12Z"/><path d="M138.62,19.5c.89,0,1.62,.73,1.62,1.62s-.73,1.62-1.62,1.62-1.62-.73-1.62-1.62,.73-1.62,1.62-1.62m0-9c-5.87,0-10.62,4.76-10.62,10.62s4.76,10.62,10.62,10.62,10.62-4.76,10.62-10.62-4.76-10.62-10.62-10.62h0Z"/></g><g><path class="cls-11" d="M180.49,49.21c-3.38,0-6.12-2.75-6.12-6.12s2.75-6.12,6.12-6.12,6.12,2.75,6.12,6.12-2.75,6.12-6.12,6.12Z"/><path d="M180.49,41.47c.89,0,1.62,.73,1.62,1.62s-.73,1.62-1.62,1.62-1.62-.73-1.62-1.62,.73-1.62,1.62-1.62m0-9c-5.87,0-10.62,4.76-10.62,10.62s4.76,10.62,10.62,10.62,10.62-4.76,10.62-10.62-4.76-10.62-10.62-10.62h0Z"/></g><g><path class="cls-11" d="M207.36,88.13c-3.38,0-6.12-2.75-6.12-6.12s2.75-6.12,6.12-6.12,6.12,2.75,6.12,6.12-2.75,6.12-6.12,6.12Z"/><path d="M207.36,80.39c.89,0,1.62,.73,1.62,1.62s-.73,1.62-1.62,1.62-1.62-.73-1.62-1.62,.73-1.62,1.62-1.62m0-9c-5.87,0-10.62,4.76-10.62,10.62s4.76,10.62,10.62,10.62,10.62-4.76,10.62-10.62-4.76-10.62-10.62-10.62h0Z"/></g><g><path class="cls-11" d="M213.06,135.08c-3.38,0-6.12-2.75-6.12-6.12s2.75-6.12,6.12-6.12,6.12,2.75,6.12,6.12-2.75,6.12-6.12,6.12Z"/><path d="M213.06,127.33c.89,0,1.62,.73,1.62,1.62s-.73,1.62-1.62,1.62-1.62-.73-1.62-1.62,.73-1.62,1.62-1.62m0-9c-5.87,0-10.62,4.76-10.62,10.62s4.76,10.62,10.62,10.62,10.62-4.76,10.62-10.62-4.76-10.62-10.62-10.62h0Z"/></g><g><path class="cls-11" d="M196.29,179.29c-3.38,0-6.12-2.75-6.12-6.12s2.75-6.12,6.12-6.12,6.12,2.75,6.12,6.12-2.75,6.12-6.12,6.12Z"/><path d="M196.29,171.55c.89,0,1.62,.73,1.62,1.62s-.73,1.62-1.62,1.62-1.62-.73-1.62-1.62,.73-1.62,1.62-1.62m0-9c-5.87,0-10.62,4.76-10.62,10.62s4.76,10.62,10.62,10.62,10.62-4.76,10.62-10.62-4.76-10.62-10.62-10.62h0Z"/></g><g><path class="cls-11" d="M160.89,210.65c-3.38,0-6.12-2.75-6.12-6.12s2.75-6.12,6.12-6.12,6.12,2.75,6.12,6.12-2.75,6.12-6.12,6.12Z"/><path d="M160.89,202.91c.89,0,1.62,.73,1.62,1.62s-.73,1.62-1.62,1.62-1.62-.73-1.62-1.62,.73-1.62,1.62-1.62m0-9c-5.87,0-10.62,4.76-10.62,10.62s4.76,10.62,10.62,10.62,10.62-4.76,10.62-10.62-4.76-10.62-10.62-10.62h0Z"/></g><g><path class="cls-11" d="M114.98,221.03c-2.86,0-5.18-2.33-5.18-5.18s2.33-5.18,5.18-5.18,5.18,2.33,5.18,5.18-2.33,5.18-5.18,5.18Z"/><path d="M114.98,212.16c2.03,0,3.68,1.65,3.68,3.68s-1.65,3.68-3.68,3.68-3.68-1.65-3.68-3.68,1.65-3.68,3.68-3.68m0-3c-3.69,0-6.68,2.99-6.68,6.68s2.99,6.68,6.68,6.68,6.68-2.99,6.68-6.68-2.99-6.68-6.68-6.68h0Z"/></g><g><path class="cls-11" d="M49.46,49.21c-3.38,0-6.12-2.75-6.12-6.12s2.75-6.12,6.12-6.12,6.12,2.75,6.12,6.12-2.75,6.12-6.12,6.12Z"/><path d="M49.46,41.47c.89,0,1.62,.73,1.62,1.62s-.73,1.62-1.62,1.62-1.62-.73-1.62-1.62,.73-1.62,1.62-1.62m0-9c-5.87,0-10.62,4.76-10.62,10.62s4.76,10.62,10.62,10.62,10.62-4.76,10.62-10.62-4.76-10.62-10.62-10.62h0Z"/></g><g><path class="cls-11" d="M22.6,88.13c-3.38,0-6.12-2.75-6.12-6.12s2.75-6.12,6.12-6.12,6.12,2.75,6.12,6.12-2.75,6.12-6.12,6.12Z"/><path d="M22.6,80.39c.89,0,1.62,.73,1.62,1.62s-.73,1.62-1.62,1.62-1.62-.73-1.62-1.62,.73-1.62,1.62-1.62m0-9c-5.87,0-10.62,4.76-10.62,10.62s4.76,10.62,10.62,10.62,10.62-4.76,10.62-10.62-4.76-10.62-10.62-10.62h0Z"/></g><g><path class="cls-11" d="M16.9,135.08c-3.38,0-6.12-2.75-6.12-6.12s2.75-6.12,6.12-6.12,6.12,2.75,6.12,6.12-2.75,6.12-6.12,6.12Z"/><path d="M16.9,127.33c.89,0,1.62,.73,1.62,1.62s-.73,1.62-1.62,1.62-1.62-.73-1.62-1.62,.73-1.62,1.62-1.62m0-9c-5.87,0-10.62,4.76-10.62,10.62s4.76,10.62,10.62,10.62,10.62-4.76,10.62-10.62-4.76-10.62-10.62-10.62h0Z"/></g><g><path class="cls-11" d="M33.67,179.29c-3.38,0-6.12-2.75-6.12-6.12s2.75-6.12,6.12-6.12,6.12,2.75,6.12,6.12-2.75,6.12-6.12,6.12Z"/><path d="M33.67,171.55c.89,0,1.62,.73,1.62,1.62s-.73,1.62-1.62,1.62-1.62-.73-1.62-1.62,.73-1.62,1.62-1.62m0-9c-5.87,0-10.62,4.76-10.62,10.62s4.76,10.62,10.62,10.62,10.62-4.76,10.62-10.62-4.76-10.62-10.62-10.62h0Z"/></g><g><path class="cls-11" d="M69.06,210.65c-3.38,0-6.12-2.75-6.12-6.12s2.75-6.12,6.12-6.12,6.12,2.75,6.12,6.12-2.75,6.12-6.12,6.12Z"/><path d="M69.06,202.91c.89,0,1.62,.73,1.62,1.62s-.73,1.62-1.62,1.62-1.62-.73-1.62-1.62,.73-1.62,1.62-1.62m0-9c-5.87,0-10.62,4.76-10.62,10.62s4.76,10.62,10.62,10.62,10.62-4.76,10.62-10.62-4.76-10.62-10.62-10.62h0Z"/></g></g><g><g><path d="M114.98,59.28c-2.51,0-4.56-2.04-4.56-4.56s2.04-4.56,4.56-4.56,4.56,2.04,4.56,4.56-2.04,4.56-4.56,4.56Z"/><path class="cls-11" d="M114.98,51.16c1.96,0,3.56,1.6,3.56,3.56s-1.6,3.56-3.56,3.56-3.56-1.6-3.56-3.56,1.6-3.56,3.56-3.56m0-2c-3.07,0-5.56,2.49-5.56,5.56s2.49,5.56,5.56,5.56,5.56-2.49,5.56-5.56-2.49-5.56-5.56-5.56h0Z"/></g><g><path class="cls-11" d="M154.71,72.74c-1.96,0-3.56-1.6-3.56-3.56s1.6-3.56,3.56-3.56,3.56,1.6,3.56,3.56-1.6,3.56-3.56,3.56Z"/><path d="M154.71,67.63c.86,0,1.56,.7,1.56,1.56s-.7,1.56-1.56,1.56-1.56-.7-1.56-1.56,.7-1.56,1.56-1.56m0-4c-3.07,0-5.56,2.49-5.56,5.56s2.49,5.56,5.56,5.56,5.56-2.49,5.56-5.56-2.49-5.56-5.56-5.56h0Z"/></g><g><circle class="cls-11" cx="175.86" cy="105.81" r="3.56"/><path d="M175.86,104.25c.86,0,1.56,.7,1.56,1.56s-.7,1.56-1.56,1.56-1.56-.7-1.56-1.56,.7-1.56,1.56-1.56m0-4c-3.07,0-5.56,2.49-5.56,5.56s2.49,5.56,5.56,5.56,5.56-2.49,5.56-5.56-2.49-5.56-5.56-5.56h0Z"/></g><g><circle class="cls-11" cx="168.52" cy="147.45" r="4.56"/><path d="M168.52,143.89c1.96,0,3.56,1.6,3.56,3.56s-1.6,3.56-3.56,3.56-3.56-1.6-3.56-3.56,1.6-3.56,3.56-3.56m0-2c-3.07,0-5.56,2.49-5.56,5.56s2.49,5.56,5.56,5.56,5.56-2.49,5.56-5.56-2.49-5.56-5.56-5.56h0Z"/></g><g><circle class="cls-11" cx="93.83" cy="174.63" r="3.56"/><path d="M93.83,173.08c.86,0,1.56,.7,1.56,1.56s-.7,1.56-1.56,1.56-1.56-.7-1.56-1.56,.7-1.56,1.56-1.56m0-4c-3.07,0-5.56,2.49-5.56,5.56s2.49,5.56,5.56,5.56,5.56-2.49,5.56-5.56-2.49-5.56-5.56-5.56h0Z"/></g><g><circle class="cls-11" cx="61.44" cy="147.45" r="4.56"/><path d="M61.44,143.89c1.96,0,3.56,1.6,3.56,3.56s-1.6,3.56-3.56,3.56-3.56-1.6-3.56-3.56,1.6-3.56,3.56-3.56m0-2c-3.07,0-5.56,2.49-5.56,5.56s2.49,5.56,5.56,5.56,5.56-2.49,5.56-5.56-2.49-5.56-5.56-5.56h0Z"/></g><g><circle class="cls-11" cx="54.1" cy="105.81" r="3.56"/><path d="M54.09,104.25c.86,0,1.56,.7,1.56,1.56s-.7,1.56-1.56,1.56-1.56-.7-1.56-1.56,.7-1.56,1.56-1.56m0-4c-3.07,0-5.56,2.49-5.56,5.56s2.49,5.56,5.56,5.56,5.56-2.49,5.56-5.56-2.49-5.56-5.56-5.56h0Z"/></g><g><circle class="cls-11" cx="136.12" cy="174.63" r="3.56"/><path d="M136.12,173.08c.86,0,1.56,.7,1.56,1.56s-.7,1.56-1.56,1.56-1.56-.7-1.56-1.56,.7-1.56,1.56-1.56m0-4c-3.07,0-5.56,2.49-5.56,5.56s2.49,5.56,5.56,5.56,5.56-2.49,5.56-5.56-2.49-5.56-5.56-5.56h0Z"/></g><g><path class="cls-11" d="M75.24,72.74c-1.96,0-3.56-1.6-3.56-3.56s1.6-3.56,3.56-3.56,3.56,1.6,3.56,3.56-1.6,3.56-3.56,3.56Z"/><path d="M75.24,67.63c.86,0,1.56,.7,1.56,1.56s-.7,1.56-1.56,1.56-1.56-.7-1.56-1.56,.7-1.56,1.56-1.56m0-4c-3.07,0-5.56,2.49-5.56,5.56s2.49,5.56,5.56,5.56,5.56-2.49,5.56-5.56-2.49-5.56-5.56-5.56h0Z"/></g></g><line class="cls-1" x1="119.92" y1="129.43" x2="112.89" y2="141.62"/><line class="cls-9" x1="119.92" y1="129.43" x2="112.89" y2="141.62"/></g><g class="cls-12"><g><g><path class="cls-11" d="M114.58,211.79l.09-.23-.14,.22c-3.33-1.23-6.48-2.39-6.48-5.29,0-2.42,2.28-3.67,4.74-4.65,.58-.22,1.19-.45,1.8-.67l.03-.02,.1-.04c2.25-.82,5.34-1.94,5.34-3.44s-3.21-2.68-5.34-3.45l-.45-.17,.4-.27c.06-.04,.12-.06,.17-.08,.62-.23,1.22-.45,1.79-.67l.09-.04,.09,.04c2.47,.98,4.75,2.21,4.75,4.64s-2.28,3.65-4.75,4.63c-.57,.24-1.17,.46-1.79,.68l-.03,.02-.1,.04c-2.12,.77-5.34,1.95-5.34,3.45s3.08,2.62,5.34,3.45l.65,.24-.58,.2,.09,.45-.13,.78-.05,.29-.28-.1Z"/><path d="M116.71,193.25c2.53,1,4.59,2.18,4.59,4.41s-2.06,3.39-4.59,4.4c-.57,.24-1.17,.46-1.78,.68-.04,.01-.09,.03-.13,.06-2.48,.9-5.5,2.04-5.5,3.69s3.02,2.77,5.5,3.69c-.04,.01-.09,.03-.13,.04l.13,.67-.13,.68c-3.28-1.21-6.37-2.34-6.37-5.08,0-2.23,2.05-3.41,4.58-4.42,.58-.22,1.18-.45,1.79-.67,.04-.01,.09-.03,.13-.06,2.48-.9,5.5-2.03,5.5-3.67s-3.02-2.78-5.5-3.69c.04-.03,.09-.04,.13-.06,.61-.22,1.21-.44,1.78-.67m0-.54l-.18,.07c-.57,.22-1.16,.44-1.77,.66-.06,.02-.15,.05-.24,.11l-.79,.55,.91,.33c1.93,.71,5.17,1.89,5.17,3.22s-3.11,2.45-5.17,3.2l-.06,.02-.05,.04c-.63,.22-1.23,.44-1.81,.67-2.55,1.02-4.9,2.32-4.9,4.89,0,3.07,3.23,4.27,6.65,5.53l.05,.02,.55,.2,.11-.58,.13-.68,.02-.09-.02-.09-.05-.24,1.03-.36-1.3-.48c-2.06-.76-5.17-1.92-5.17-3.22s3.24-2.51,5.17-3.22l.06-.02,.05-.04c.57-.2,1.21-.44,1.82-.69,2.54-1.01,4.9-2.29,4.9-4.86s-2.36-3.87-4.91-4.87l-.18-.07h0Z"/></g><path class="cls-2" d="M114.8,210.16s.08,.03,.12,.04l-.12,.67-.13-.67s.09-.03,.13-.04Z"/><g><path class="cls-11" d="M112.79,193.48c-2.46-.97-4.74-2.21-4.74-4.64s2.28-3.67,4.75-4.64c.58-.22,1.18-.45,1.78-.67l.22,.19-.09-.23c2.4-.9,5.34-2.01,5.34-3.47s-3.08-2.62-5.34-3.44l-.45-.17,.4-.27c.06-.04,.12-.06,.17-.08,.62-.23,1.22-.45,1.79-.67l.09-.04,.09,.04c2.47,.96,4.75,2.19,4.75,4.63s-2.29,3.67-4.76,4.64c-.57,.22-1.17,.45-1.77,.67l-.03,.02-.1,.04c-2.25,.83-5.34,1.98-5.34,3.45s3.08,2.62,5.34,3.45l.64,.24-.64,.23-.21-.19,.09,.23c-.61,.22-1.2,.44-1.78,.68l-.09,.04-.09-.04Z"/><path d="M116.71,175.63c2.53,.99,4.59,2.17,4.59,4.39s-2.06,3.41-4.6,4.41c-.57,.22-1.17,.44-1.77,.67-.04,.01-.09,.03-.13,.06-2.48,.92-5.5,2.04-5.5,3.69s3.02,2.77,5.5,3.69c-.04,.01-.09,.03-.13,.04-.61,.22-1.21,.45-1.79,.68-2.53-1-4.58-2.18-4.58-4.41s2.06-3.41,4.59-4.41c.58-.22,1.18-.45,1.78-.67,.04-.01,.09-.03,.13-.04,2.48-.93,5.5-2.06,5.5-3.7s-3.02-2.77-5.5-3.67c.04-.03,.09-.04,.13-.06,.61-.22,1.21-.45,1.78-.67m0-.54l-.18,.07c-.57,.22-1.16,.44-1.77,.66-.06,.02-.15,.05-.24,.11l-.79,.55,.91,.33c2.06,.75,5.17,1.89,5.17,3.2s-2.97,2.4-5.14,3.22l-.08,.03-.08,.03c-.61,.23-1.21,.45-1.79,.67-2.55,1.01-4.91,2.3-4.91,4.88s2.35,3.87,4.9,4.87l.19,.07,.19-.08c.55-.22,1.1-.43,1.77-.67l.12-.04,1.31-.46-1.3-.48c-2.06-.76-5.17-1.91-5.17-3.22s3.11-2.45,5.17-3.22l.06-.02,.05-.04h.06c.59-.23,1.18-.45,1.74-.67,2.56-1.01,4.92-2.29,4.92-4.87s-2.36-3.87-4.91-4.86l-.18-.07h0Z"/></g><g><path class="cls-11" d="M112.79,175.86c-2.46-.99-4.74-2.23-4.74-4.65s2.28-3.65,4.75-4.63c.58-.24,1.18-.46,1.78-.68l.13-.04c2.25-.83,5.34-1.98,5.34-3.45s-3.08-2.62-5.34-3.44l-.45-.17,.4-.27c.06-.04,.12-.06,.17-.08,.61-.23,1.21-.45,1.78-.68l.09-.04,.09,.04c2.47,.97,4.76,2.21,4.76,4.64s-2.29,3.67-4.76,4.64c-.57,.22-1.17,.45-1.77,.67l-.03,.02-.11,.04c-2.12,.77-5.34,1.94-5.34,3.44s3.08,2.63,5.34,3.47l.65,.24-.66,.23-.21-.19,.09,.23c-.61,.22-1.2,.44-1.78,.68l-.09,.04-.09-.04Z"/><path d="M116.7,157.99c2.54,1,4.6,2.17,4.6,4.41s-2.06,3.41-4.6,4.41c-.57,.22-1.17,.45-1.77,.67-.04,.01-.09,.03-.13,.06-2.48,.9-5.5,2.04-5.5,3.67s3.02,2.78,5.5,3.7c-.04,.01-.09,.03-.13,.04-.61,.22-1.21,.45-1.79,.68-2.53-1.02-4.58-2.2-4.58-4.42s2.06-3.39,4.59-4.4c.58-.24,1.18-.46,1.78-.68,.04-.01,.09-.03,.13-.04,2.48-.92,5.5-2.04,5.5-3.69s-3.02-2.77-5.5-3.67c.04-.03,.09-.04,.13-.06,.6-.22,1.2-.45,1.77-.68m0-.54l-.19,.08c-.56,.23-1.16,.46-1.75,.67-.06,.02-.16,.05-.25,.12l-.79,.55,.91,.33c2.06,.75,5.17,1.89,5.17,3.2s-3.11,2.45-5.17,3.22h-.04s-.08,.04-.08,.04c-.61,.23-1.22,.45-1.8,.69-2.54,1.01-4.9,2.29-4.9,4.86s2.35,3.87,4.89,4.89l.19,.08,.19-.08c.55-.22,1.1-.43,1.77-.67l.12-.04,1.31-.46-1.3-.48c-2.06-.76-5.17-1.91-5.17-3.23s3.24-2.5,5.17-3.2l.06-.02,.05-.04h.06c.59-.23,1.18-.45,1.74-.67,2.55-1.01,4.92-2.29,4.92-4.87s-2.36-3.87-4.92-4.87l-.19-.07h0Z"/></g><path class="cls-2" d="M116.71,175.63c-.57,.22-1.17,.45-1.78,.67-.04,.01-.09,.03-.13,.06-.04-.03-.09-.04-.13-.06-.61-.22-1.21-.45-1.79-.67,.58-.24,1.18-.46,1.79-.68,.04-.01,.09-.03,.13-.04l.12,.04c.61,.22,1.21,.45,1.79,.68Z"/><g><path class="cls-11" d="M114.66,158.93h0c-.68-.25-1.28-.47-1.86-.71-2.46-.98-4.75-2.21-4.75-4.63,0-2.93,3.32-4.14,6.53-5.31l.27-.1,.18,.81,.22,1.01-.37,.13c-2.25,.83-5.33,1.97-5.33,3.46s3.21,2.66,5.34,3.44l.1,.05c.63,.23,1.23,.46,1.8,.68l.58,.23-.57,.24c-.57,.24-1.18,.46-1.78,.68l-.14,.1-.21-.07Z"/><path d="M114.67,148.52l.12,.53v.04l.17,.75h-.04s-.08,.04-.12,.06c-2.48,.92-5.5,2.06-5.5,3.7s3.02,2.77,5.5,3.67c.04,.03,.09,.04,.13,.06,.6,.22,1.2,.44,1.77,.67-.57,.24-1.17,.46-1.77,.68-.04,.01-.09,.03-.13,.06-.04-.03-.09-.04-.13-.06-.6-.22-1.2-.45-1.78-.68-2.53-1-4.59-2.17-4.59-4.4,0-2.74,3.09-3.88,6.37-5.08m.36-.66l-.53,.19c-3.29,1.2-6.7,2.44-6.7,5.55,0,2.56,2.36,3.85,4.91,4.86,.58,.24,1.19,.46,1.79,.69l.24-.44-.18,.47,.29,.2,.24-.22c.62-.22,1.23-.45,1.81-.69l1.15-.48-1.16-.45c-.57-.22-1.16-.44-1.75-.66h0s-.05-.02-.05-.02l-.05-.04h-.04c-1.93-.71-5.17-1.89-5.17-3.21s3.11-2.47,5.17-3.23l.11-.04,.42-.15-.06-.45-.16-.7h0s-.01-.1-.01-.1l-.12-.53-.13-.55h0Z"/></g><path class="cls-2" d="M114.92,192.57c.61,.22,1.21,.45,1.79,.68-.57,.22-1.17,.45-1.78,.67-.04,.01-.09,.03-.13,.06-.04-.03-.09-.04-.13-.06-.61-.22-1.21-.44-1.79-.67,.58-.24,1.18-.46,1.79-.68,.04-.01,.09-.03,.13-.04l.12,.04Z"/></g><g><polygon class="cls-2" points="114.76 149.17 114.79 149.05 114.79 149.06 114.76 149.17"/><g><path class="cls-11" d="M112.79,202.29c-2.46-.97-4.74-2.21-4.74-4.63s2.28-3.67,4.74-4.64c.58-.24,1.18-.46,1.8-.68l.22,.19-.09-.23c2.25-.83,5.34-1.98,5.34-3.45s-3.08-2.62-5.34-3.45l-.45-.17,.39-.27c.06-.04,.13-.07,.18-.08,.61-.23,1.21-.45,1.78-.67l.09-.04,.09,.04c2.47,.97,4.76,2.21,4.76,4.64s-2.28,3.67-4.75,4.64c-.57,.22-1.17,.45-1.79,.67l-.03,.02-.1,.04c-2.12,.77-5.34,1.95-5.34,3.45s3.08,2.62,5.34,3.44l.45,.16-.39,.28c-.06,.05-.13,.07-.18,.08-.62,.23-1.22,.45-1.8,.67l-.09,.04-.09-.04Z"/><path d="M116.7,184.43c2.54,1,4.6,2.17,4.6,4.41s-2.06,3.41-4.59,4.41c-.57,.22-1.17,.45-1.78,.67-.04,.01-.09,.03-.13,.06-2.48,.9-5.5,2.04-5.5,3.69s3.02,2.77,5.5,3.67c-.04,.03-.09,.04-.13,.06-.61,.22-1.21,.45-1.79,.67-2.53-1-4.58-2.17-4.58-4.4s2.05-3.41,4.58-4.41c.58-.24,1.18-.46,1.79-.68,.04-.01,.09-.03,.13-.04,2.48-.92,5.5-2.04,5.5-3.69s-3.02-2.77-5.5-3.69c.04-.03,.09-.04,.13-.06,.6-.22,1.2-.45,1.77-.67m0-.54l-.18,.07c-.56,.22-1.14,.43-1.72,.65-.1,.03-.19,.06-.28,.13l-.79,.55,.9,.33c2.06,.76,5.17,1.92,5.17,3.22s-3.11,2.45-5.17,3.22h-.04s-.08,.04-.08,.04c-.69,.25-1.25,.46-1.81,.69-2.54,1-4.89,2.29-4.89,4.87s2.35,3.85,4.9,4.86l.18,.07,.18-.07c.58-.22,1.17-.44,1.78-.66,.06-.02,.15-.05,.25-.12l.78-.55-.9-.33c-2.06-.75-5.17-1.88-5.17-3.2s3.24-2.51,5.17-3.22l.06-.02,.05-.04c.63-.22,1.23-.44,1.81-.67,2.55-1.01,4.91-2.3,4.91-4.87s-2.36-3.87-4.92-4.87l-.18-.07h0Z"/></g><g><path class="cls-11" d="M112.8,167.04c-2.47-.98-4.75-2.21-4.75-4.64s2.28-3.67,4.75-4.64c.58-.22,1.18-.45,1.78-.67l.03-.02,.11-.04c2.12-.77,5.34-1.94,5.34-3.44s-3.08-2.63-5.34-3.47l-.19-.07-.1-.24,.12-.77,.04-.17,.18-.69,.26,.09c3.36,1.23,6.53,2.39,6.53,5.31,0,2.42-2.29,3.65-4.76,4.63-.57,.24-1.17,.46-1.77,.68l-.03,.02-.11,.04c-2.25,.82-5.34,1.95-5.34,3.44s3.08,2.62,5.34,3.45l.64,.24-.64,.23-.21-.19,.09,.23c-.6,.22-1.19,.44-1.77,.68l-.09,.04-.09-.04Z"/><path d="M114.93,148.52c3.27,1.2,6.37,2.34,6.37,5.08,0,2.23-2.06,3.39-4.6,4.4-.57,.24-1.17,.46-1.77,.68-.04,.01-.09,.03-.13,.06-2.48,.9-5.5,2.03-5.5,3.67s3.02,2.77,5.5,3.69c-.04,.01-.09,.03-.13,.04-.6,.22-1.2,.45-1.78,.68-2.53-1-4.59-2.17-4.59-4.41s2.06-3.41,4.59-4.41c.58-.22,1.18-.45,1.78-.67,.04-.01,.09-.03,.13-.06,2.48-.9,5.5-2.04,5.5-3.67s-3.02-2.78-5.5-3.7c-.04-.01-.09-.03-.13-.04l.12-.77v-.04l.03-.1,.11-.43m-.35-.66l-.14,.54-.11,.43-.02,.08-.02,.07v.07l-.11,.73-.06,.41,.4,.14,.08,.03,.05,.02c2.05,.76,5.17,1.91,5.17,3.23s-3.24,2.5-5.17,3.2l-.06,.02-.05,.04c-.62,.22-1.22,.44-1.8,.67-2.55,1.01-4.91,2.3-4.91,4.88s2.36,3.87,4.91,4.87l.19,.07,.19-.08c.58-.23,1.17-.45,1.77-.68l.12-.04,1.31-.46-1.3-.48c-2.06-.76-5.17-1.92-5.17-3.22s3.11-2.45,5.17-3.2l.06-.02,.05-.04c.62-.22,1.23-.45,1.81-.69,2.55-1,4.91-2.29,4.91-4.86,0-3.1-3.4-4.34-6.7-5.55l-.52-.19h0Z"/></g><g><path class="cls-11" d="M112.8,184.66c-2.47-.98-4.75-2.21-4.75-4.64s2.28-3.67,4.74-4.63c.58-.24,1.18-.46,1.79-.68l.22,.19-.09-.23c2.25-.83,5.34-1.98,5.34-3.47s-3.21-2.66-5.34-3.44l-.45-.17,.4-.27c.06-.04,.13-.07,.18-.08,.61-.23,1.21-.45,1.78-.67l.09-.04,.09,.04c2.47,.97,4.76,2.21,4.76,4.63s-2.28,3.67-4.75,4.65c-.57,.22-1.17,.45-1.79,.67l-.03,.02-.1,.04c-2.25,.82-5.34,1.95-5.34,3.44s2.94,2.56,5.3,3.45l.65,.24-.61,.24-.21-.19,.09,.23c-.6,.22-1.2,.44-1.78,.67l-.09,.04-.09-.04Z"/><path d="M116.7,166.81c2.54,1,4.6,2.17,4.6,4.4s-2.06,3.41-4.59,4.42c-.57,.22-1.17,.45-1.78,.67-.04,.01-.09,.03-.13,.06-2.48,.9-5.5,2.03-5.5,3.67s3.02,2.77,5.5,3.7c-.04,.01-.09,.03-.13,.04-.6,.22-1.2,.45-1.78,.67-2.53-1-4.59-2.17-4.59-4.41s2.05-3.41,4.58-4.39c.58-.24,1.18-.46,1.79-.68,.04-.01,.09-.03,.13-.04,2.48-.92,5.5-2.06,5.5-3.7s-3.02-2.77-5.5-3.67c.04-.03,.09-.04,.13-.06,.6-.22,1.2-.45,1.77-.67m0-.54l-.18,.07c-.55,.22-1.14,.43-1.72,.65l.11,.49-.16-.47c-.05,.02-.15,.05-.24,.11l-.79,.55,.91,.33c1.93,.71,5.17,1.89,5.17,3.2s-3.11,2.47-5.17,3.23h-.04s-.08,.04-.08,.04c-.69,.25-1.26,.46-1.81,.69-2.54,.99-4.89,2.27-4.89,4.86s2.36,3.87,4.91,4.87l.18,.07,.18-.07c.58-.22,1.18-.44,1.77-.67l.12-.04,1.3-.46-1.29-.48c-2.21-.83-5.18-1.94-5.18-3.23s3.11-2.45,5.17-3.2l.06-.02,.05-.04c.63-.22,1.23-.44,1.81-.67,2.55-1.02,4.91-2.32,4.91-4.89s-2.36-3.85-4.92-4.86l-.18-.07h0Z"/></g><polygon class="cls-2" points="114.89 148.51 114.82 148.95 114.79 149.05 114.89 148.51"/><g><path class="cls-11" d="M114.68,211.6l-.3-1.56,.21-.07,.21,.2-.09-.23c2.25-.83,5.34-1.98,5.34-3.45s-3.21-2.68-5.34-3.45l-.45-.17,.4-.27c.06-.04,.12-.06,.17-.08,.62-.23,1.22-.45,1.79-.68l.09-.04,.09,.04c2.47,.99,4.75,2.24,4.75,4.65,0,2.89-3.14,4.06-6.46,5.28l-.28,.1-.13-.26Z"/><path d="M116.71,202.05c2.53,1.02,4.59,2.2,4.59,4.42,0,2.74-3.1,3.87-6.37,5.08l-.13-.68-.13-.67s.09-.03,.13-.04c2.48-.92,5.5-2.04,5.5-3.69s-3.02-2.78-5.5-3.69c.04-.03,.09-.04,.13-.06,.61-.22,1.21-.45,1.78-.68m0-.54l-.19,.08c-.58,.24-1.21,.47-1.76,.67-.06,.02-.15,.05-.24,.11l-.79,.55,.91,.33c1.93,.71,5.17,1.89,5.17,3.22s-3.11,2.45-5.17,3.22h-.04s-.08,.04-.08,.04l-.41,.14,.08,.43,.13,.67,.13,.68,.11,.58,.55-.2,.07-.03c3.26-1.2,6.62-2.45,6.62-5.52,0-2.57-2.36-3.86-4.9-4.89l-.19-.08h0Z"/></g></g></g></g></g></svg>